<?xml version="1.0" encoding="UTF-8" standalone="no"?>
<svg
   xmlns:dc="http://purl.org/dc/elements/1.1/"
   xmlns:cc="http://creativecommons.org/ns#"
   xmlns:rdf="http://www.w3.org/1999/02/22-rdf-syntax-ns#"
   xmlns:svg="http://www.w3.org/2000/svg"
   xmlns="http://www.w3.org/2000/svg"
   xmlns:sodipodi="http://sodipodi.sourceforge.net/DTD/sodipodi-0.dtd"
   xmlns:inkscape="http://www.inkscape.org/namespaces/inkscape"
   inkscape:version="1.0 (4035a4f, 2020-05-01)"
   sodipodi:docname="9.svg"
   id="svg1866"
   height="200.0pt"
   width="200.0pt"
   viewBox="0 0 200 200"
   version="1.1">
  <metadata
     id="metadata1872">
    <rdf:RDF>
      <cc:Work
         rdf:about="">
        <dc:format>image/svg+xml</dc:format>
        <dc:type
           rdf:resource="http://purl.org/dc/dcmitype/StillImage" />
      </cc:Work>
    </rdf:RDF>
  </metadata>
  <defs
     id="defs1870" />
  <sodipodi:namedview
     inkscape:current-layer="svg1866"
     inkscape:cy="133.33333"
     inkscape:cx="133.33333"
     inkscape:zoom="1.75125"
     showgrid="false"
     id="namedview1868"
     inkscape:window-height="480"
     inkscape:window-width="640"
     inkscape:pageshadow="2"
     inkscape:pageopacity="0"
     guidetolerance="10"
     gridtolerance="10"
     objecttolerance="10"
     borderopacity="1"
     bordercolor="#666666"
     pagecolor="#ffffff" />
  <path
     style="fill:#ffffff;fill-opacity:0"
     id="path1828"
     fill="#ffffff"
     d="M 0.00 0.00 L 200.00 0.00 L 200.00 200.00 L 0.00 200.00 L 0.00 0.00 Z" />
  <path
     id="path1830"
     fill="#020000"
     d="M 18.80 13.40 C 30.18 10.65 42.30 8.88 54.01 9.62 C 67.37 10.65 81.26 14.26 94.49 16.31 C 99.25 17.00 104.21 17.72 109.01 17.29 C 121.42 16.11 134.60 12.79 147.00 13.31 C 154.34 13.62 161.77 13.58 169.06 14.44 C 173.15 14.87 176.38 17.13 178.11 20.88 C 182.44 30.00 185.02 40.08 186.91 49.97 C 188.31 57.24 187.52 64.14 186.63 71.40 C 193.25 78.00 196.76 86.68 196.93 95.99 C 197.12 109.25 195.15 122.72 192.58 135.71 C 181.01 127.70 167.12 123.20 153.01 123.45 C 143.47 123.80 134.23 124.85 125.24 128.26 C 119.99 130.31 114.73 131.97 109.01 131.84 C 96.79 132.15 85.86 126.70 74.01 126.26 C 64.58 126.60 54.83 127.54 46.68 132.70 C 48.73 140.67 50.76 148.64 52.78 156.61 C 58.06 158.14 64.31 159.06 68.99 162.00 C 72.80 164.45 74.29 168.60 74.40 172.97 C 74.45 176.40 74.57 181.33 71.92 183.91 C 69.33 183.93 68.45 181.03 68.01 178.96 C 67.26 175.66 68.42 170.72 65.77 168.26 C 63.04 165.70 58.16 165.26 54.67 164.35 C 56.15 169.76 57.70 175.14 59.32 180.51 C 60.12 183.40 61.12 186.42 60.50 189.44 C 59.02 189.72 57.09 190.39 55.92 189.05 C 54.49 187.46 53.92 184.96 53.32 182.95 C 51.54 176.17 49.70 169.40 47.92 162.61 C 43.66 160.97 39.13 159.46 35.82 156.15 C 31.33 151.78 30.12 144.46 32.92 138.86 C 34.53 135.62 37.06 132.71 39.20 129.79 C 29.90 94.78 20.67 59.74 11.41 24.72 C 9.58 24.26 7.57 23.96 5.89 23.10 C 2.68 20.95 2.44 15.84 5.24 13.24 C 9.30 9.94 15.22 8.65 18.80 13.40 Z" />
  <path
     id="path1832"
     fill="#005bab"
     d="M 54.00 16.67 C 68.70 17.39 83.42 21.71 98.03 23.47 C 110.99 24.83 122.54 22.29 135.23 20.72 C 145.34 19.43 155.44 19.08 165.57 20.44 C 167.74 20.92 169.78 20.79 170.99 22.96 C 179.32 36.76 180.88 51.76 180.81 67.57 C 165.87 63.36 150.83 65.73 135.94 68.73 C 127.21 70.33 117.83 73.09 109.01 72.11 C 97.57 71.01 84.99 66.49 73.00 66.74 C 63.85 66.95 54.49 68.77 45.61 70.91 C 42.88 61.40 39.97 51.86 36.34 42.65 C 33.08 34.44 28.12 27.31 22.49 20.56 C 32.75 18.23 43.45 16.46 54.00 16.67 Z" />
  <path
     id="path1834"
     fill="#ffffff"
     d="M 21.32 33.26 C 27.99 45.19 31.86 59.17 35.83 72.20 C 40.00 85.61 42.58 99.73 41.69 113.81 C 35.42 87.87 28.51 62.07 21.96 36.19 C 21.74 35.22 21.53 34.24 21.32 33.26 Z" />
  <path
     id="path1836"
     fill="#ffffff"
     d="M 153.48 72.78 C 162.06 71.46 171.46 72.10 179.48 75.61 C 183.99 77.50 186.03 82.08 187.40 86.46 C 191.11 99.16 189.47 111.70 187.49 124.53 C 167.82 117.09 144.17 113.92 123.99 121.03 C 118.70 122.71 113.63 124.78 108.01 124.88 C 96.91 125.29 84.99 120.87 73.98 119.51 C 65.61 118.51 56.40 121.49 48.56 124.18 C 48.81 117.79 48.93 111.39 48.84 105.00 C 48.82 96.11 46.52 86.86 45.01 78.04 C 57.52 74.59 71.11 72.80 84.03 74.49 C 94.56 75.57 105.55 79.38 116.03 79.14 C 128.47 78.44 141.19 74.85 153.48 72.78 Z" />
  <path
     id="path1838"
     fill="#005bab"
     d="M 178.74 77.29 C 181.84 78.53 183.25 83.01 183.60 86.01 C 184.03 88.20 182.64 88.59 181.34 89.94 C 180.18 87.91 179.06 85.86 177.87 83.84 C 177.04 85.46 175.95 87.09 175.74 88.92 C 175.19 95.74 176.94 102.54 181.19 107.96 C 182.47 105.79 183.52 103.47 184.91 101.37 C 187.99 103.95 187.63 107.44 187.29 111.06 C 186.75 113.96 185.39 116.92 182.05 117.14 C 179.52 116.79 178.31 114.97 177.05 112.98 C 171.70 104.21 169.18 93.16 170.93 83.01 C 171.71 79.23 174.61 76.12 178.74 77.29 Z" />
  <path
     id="path1840"
     fill="#005bab"
     d="M 65.11 77.69 C 66.52 81.79 67.03 86.25 67.84 90.50 C 69.22 98.59 70.87 106.64 72.00 114.77 C 70.40 114.67 67.60 116.14 66.93 114.13 C 64.44 108.62 64.90 101.82 62.76 96.18 C 62.23 94.41 59.91 95.28 58.64 95.57 C 57.16 97.05 58.03 98.92 58.20 100.77 C 59.25 106.08 60.45 111.29 60.94 116.70 C 59.59 116.88 58.23 117.00 56.87 117.08 C 55.01 114.80 54.46 111.32 53.79 108.51 C 51.89 99.02 49.55 90.23 49.40 80.48 C 51.01 80.26 53.41 79.07 54.87 79.90 C 56.06 83.52 56.34 87.38 57.54 91.02 C 58.87 90.48 60.05 89.79 61.08 88.96 C 61.29 85.49 60.00 81.96 60.46 78.54 C 61.97 78.05 63.53 77.80 65.11 77.69 Z" />
  <path
     id="path1842"
     fill="#005bab"
     d="M 149.11 77.43 C 154.02 79.89 152.27 87.94 151.78 92.26 C 154.09 93.89 156.30 95.06 157.06 98.02 C 158.21 102.00 158.29 108.02 155.18 111.17 C 151.93 114.36 147.75 113.74 143.59 113.70 C 142.76 107.14 142.10 100.55 141.09 94.02 C 140.31 89.02 137.97 84.53 137.27 79.50 C 141.13 78.78 145.17 77.32 149.11 77.43 Z" />
  <path
     id="path1844"
     fill="#005bab"
     d="M 163.08 77.78 C 167.37 79.62 168.54 85.37 164.91 88.56 C 163.86 86.70 162.86 84.81 161.90 82.90 C 160.94 83.24 159.97 83.56 159.00 83.86 C 160.41 88.51 163.08 92.16 166.27 95.73 C 169.66 99.73 173.23 104.35 172.02 109.95 C 171.08 114.64 164.11 115.81 160.84 113.14 C 158.70 110.73 157.62 106.17 159.91 103.51 C 163.88 102.60 162.94 109.51 166.87 108.78 C 166.89 107.14 166.85 105.57 166.05 104.08 C 163.44 99.01 158.25 95.33 155.75 90.27 C 154.62 87.48 153.93 83.95 154.81 81.01 C 155.99 77.92 160.20 77.00 163.08 77.78 Z" />
  <path
     id="path1846"
     fill="#005bab"
     d="M 98.43 79.53 C 100.10 82.62 100.70 86.04 101.97 89.26 C 103.29 90.65 104.96 91.69 106.30 93.08 C 106.84 95.49 104.28 96.83 102.94 98.44 C 103.35 102.48 103.57 106.28 104.93 110.14 C 106.30 114.15 108.43 117.60 110.35 121.34 C 107.93 121.21 104.65 122.44 103.19 119.83 C 98.91 114.02 99.48 104.77 97.98 97.82 C 96.85 96.86 95.72 95.94 94.72 94.84 C 94.77 93.01 96.28 91.89 97.29 90.49 C 97.20 86.88 94.83 82.02 98.43 79.53 Z" />
  <path
     id="path1848"
     fill="#005bab"
     d="M 109.64 81.34 C 111.57 84.46 111.74 88.77 112.44 92.33 C 114.51 92.35 116.63 92.24 118.68 92.52 C 120.14 95.01 120.63 98.21 121.26 101.00 C 122.31 106.37 123.55 111.70 124.59 117.07 C 123.51 117.62 122.43 118.16 121.34 118.70 C 119.89 116.62 118.63 114.53 118.24 111.98 C 117.00 106.20 118.53 101.32 114.81 96.29 C 114.30 98.26 113.49 99.90 114.13 101.95 C 115.35 107.01 116.93 111.63 116.70 117.01 C 116.58 118.61 114.65 119.96 113.78 121.17 C 112.78 119.59 111.72 118.16 111.42 116.26 C 109.98 108.36 109.50 99.78 107.26 91.73 C 106.58 88.97 105.57 85.87 105.89 83.02 C 106.61 81.11 107.84 81.04 109.64 81.34 Z" />
  <path
     id="path1850"
     fill="#ffffff"
     d="M 145.28 83.17 C 145.93 83.50 146.54 83.89 147.10 84.33 C 147.60 87.33 146.90 90.10 145.96 92.92 C 144.59 89.67 143.91 86.56 145.28 83.17 Z" />
  <path
     id="path1852"
     fill="#005bab"
     d="M 80.03 88.04 C 81.79 92.16 82.46 97.15 81.32 101.51 C 80.32 102.60 78.07 103.10 76.78 104.04 C 76.65 106.75 77.37 107.92 79.23 109.78 C 80.47 107.80 81.01 105.68 81.80 103.48 C 85.55 106.18 85.22 111.18 82.68 114.59 C 80.13 115.01 76.59 115.69 75.07 112.96 C 72.39 108.81 72.20 102.77 71.67 97.97 C 71.53 94.16 70.71 89.70 71.91 86.02 C 74.54 84.32 78.77 84.87 80.03 88.04 Z" />
  <path
     id="path1854"
     fill="#005bab"
     d="M 84.70 87.78 C 85.89 88.31 87.07 88.86 88.24 89.43 C 89.75 88.61 91.26 87.78 92.78 86.98 C 93.56 91.43 93.77 95.44 95.57 99.66 C 94.61 100.25 93.58 100.75 92.58 101.26 C 92.24 98.98 92.06 96.65 91.54 94.41 C 90.77 94.26 90.00 94.19 89.20 94.19 C 86.91 103.46 95.13 109.04 92.34 118.19 C 90.53 116.63 88.63 115.67 87.93 113.24 C 86.26 107.89 85.74 102.20 84.31 96.77 C 83.68 93.40 82.16 90.78 84.70 87.78 Z" />
  <path
     id="path1856"
     fill="#005bab"
     d="M 126.54 88.64 C 128.42 87.81 130.86 87.99 132.83 88.38 C 134.78 88.63 134.71 91.56 135.17 93.00 C 136.38 100.37 139.24 106.99 139.66 114.51 C 136.95 114.58 134.36 114.81 131.74 115.52 C 129.92 115.83 128.39 116.68 126.96 115.01 C 125.01 112.43 124.12 107.15 125.38 104.19 C 127.02 101.10 129.87 98.69 131.85 95.79 C 130.71 95.34 129.55 94.93 128.39 94.57 C 126.94 96.50 127.09 100.22 123.89 99.43 C 123.28 95.83 123.40 91.10 126.54 88.64 Z" />
  <path
     id="path1858"
     fill="#ffffff"
     d="M 77.11 91.54 C 77.40 92.97 77.68 94.39 77.94 95.82 L 75.62 95.77 C 76.12 94.36 76.57 92.94 77.11 91.54 Z" />
  <path
     id="path1860"
     fill="#ffffff"
     d="M 150.82 97.31 C 151.95 101.84 151.81 103.90 148.92 107.66 C 146.92 104.35 146.89 101.31 147.46 97.59 C 148.58 97.46 149.70 97.36 150.82 97.31 Z" />
  <path
     id="path1862"
     fill="#ffffff"
     d="M 132.55 103.19 C 132.78 105.62 133.30 107.78 132.17 110.07 L 130.41 109.35 C 130.30 106.98 131.37 105.14 132.55 103.19 Z" />
  <path
     id="path1864"
     fill="#ffffff"
     d="M 41.45 138.81 C 43.06 144.00 44.38 149.28 45.68 154.55 C 43.58 153.06 40.98 151.58 39.83 149.18 C 38.74 146.88 39.25 144.32 39.97 142.00 C 40.45 140.93 40.95 139.87 41.45 138.81 Z" />
</svg>
