<?xml version="1.0" encoding="UTF-8" standalone="no"?>
<svg
   version="1.0"
   width="28.00001pt"
   height="28.000015pt"
   viewBox="0 0 28.000006 28.000011"
   preserveAspectRatio="xMidYMid"
   id="svg76"
   sodipodi:docname="UEFA_peque.svg"
   inkscape:version="1.2.1 (9c6d41e, 2022-07-14)"
   inkscape:export-filename="UEFA_peque.svg"
   inkscape:export-xdpi="96"
   inkscape:export-ydpi="96"
   xmlns:inkscape="http://www.inkscape.org/namespaces/inkscape"
   xmlns:sodipodi="http://sodipodi.sourceforge.net/DTD/sodipodi-0.dtd"
   xmlns="http://www.w3.org/2000/svg"
   xmlns:svg="http://www.w3.org/2000/svg">
  <sodipodi:namedview
     id="namedview13"
     pagecolor="#ffffff"
     bordercolor="#000000"
     borderopacity="0.25"
     inkscape:showpageshadow="2"
     inkscape:pageopacity="0.0"
     inkscape:pagecheckerboard="0"
     inkscape:deskcolor="#d1d1d1"
     inkscape:document-units="pt"
     showgrid="false"
     inkscape:zoom="0.60197495"
     inkscape:cx="142.86309"
     inkscape:cy="85.551733"
     inkscape:window-width="1390"
     inkscape:window-height="903"
     inkscape:window-x="56"
     inkscape:window-y="25"
     inkscape:window-maximized="0"
     inkscape:current-layer="svg76" />
  <defs
     id="defs80" />
  <g
     transform="matrix(0.00651163,0,0,-0.00655016,-18.558145,46.740024)"
     fill="#000000"
     stroke="none"
     id="g74">
    <path
       d="m 5118,7124 c -133,-14 -294,-51 -399,-92 -74,-30 -77,-30 -219,-25 -132,5 -375,-14 -426,-34 -10,-4 -2,-19 30,-57 55,-65 93,-133 80,-145 -5,-4 -61,-51 -124,-103 -116,-96 -248,-227 -270,-269 -10,-18 -10,-21 1,-16 198,86 455,177 500,177 10,0 38,-36 70,-87 29,-48 75,-117 102,-153 50,-65 146,-170 157,-170 3,0 21,53 40,118 49,171 144,385 183,409 26,16 334,42 544,46 84,1 153,5 153,8 0,13 -157,83 -309,137 l -163,59 40,34 c 55,46 135,94 227,133 42,19 78,35 80,38 8,8 -189,2 -297,-8 z"
       id="path58" />
    <path
       d="m 6292,6690 c 0,-65 -16,-145 -31,-154 -4,-3 -57,15 -117,40 -60,25 -160,61 -223,80 -112,34 -295,69 -326,62 -10,-2 19,-27 74,-66 165,-116 436,-364 447,-408 7,-28 -48,-107 -206,-299 -58,-70 -106,-131 -108,-135 -2,-5 5,-7 15,-5 173,38 447,75 549,75 h 51 l 77,-109 c 77,-110 200,-311 269,-440 35,-67 59,-92 52,-53 -2,9 -6,82 -9,162 -3,80 -14,205 -25,279 -12,74 -19,136 -18,138 9,8 130,-32 190,-62 38,-19 71,-35 74,-35 10,0 -91,177 -140,245 -76,106 -134,170 -212,234 -60,49 -79,72 -115,142 -62,120 -139,234 -208,309 l -60,65 z"
       id="path60" />
    <path
       d="m 3540,6603 c -239,-225 -415,-466 -523,-720 -48,-112 -109,-318 -121,-408 l -7,-50 41,74 c 71,129 182,283 194,270 2,-2 18,-33 36,-69 18,-36 51,-92 74,-125 l 41,-60 6,30 c 4,17 7,52 8,79 2,83 42,358 56,386 15,29 99,105 255,230 166,134 160,122 55,115 -49,-4 -112,-11 -138,-17 -27,-5 -51,-8 -54,-5 -13,14 47,133 166,330 13,20 21,37 19,37 -2,0 -50,-44 -108,-97 z"
       id="path62" />
    <path
       d="m 4611,6094 c -44,-165 -82,-398 -96,-594 l -7,-95 -202,-85 c -110,-47 -250,-109 -311,-139 -91,-44 -107,-55 -90,-62 231,-99 466,-190 540,-209 68,-16 77,-28 82,-106 11,-181 70,-536 106,-639 l 13,-36 126,209 c 70,115 139,231 154,258 34,63 64,106 80,120 10,8 67,-3 221,-42 114,-30 287,-70 383,-89 96,-20 183,-37 192,-39 18,-4 0,17 -183,215 -129,139 -319,369 -319,385 0,12 298,423 395,545 87,108 84,103 45,94 -114,-22 -381,-93 -540,-141 -102,-31 -195,-59 -207,-61 -25,-6 -72,60 -253,357 -62,102 -114,187 -116,189 -1,1 -7,-14 -13,-35 z"
       id="path64" />
    <path
       d="m 3222,5398 c -66,-120 -115,-226 -146,-318 l -25,-74 -78,-39 c -83,-42 -123,-72 -123,-94 0,-21 46,-106 94,-177 l 43,-63 6,-159 c 6,-172 29,-296 70,-387 l 23,-52 23,75 c 23,77 87,220 114,254 14,19 18,17 118,-51 106,-71 279,-176 279,-168 0,2 -18,41 -41,86 -48,95 -78,173 -125,318 l -34,105 26,40 c 14,23 113,128 220,234 107,106 194,194 194,196 0,8 -370,-22 -491,-41 -45,-6 -43,-14 -69,223 -10,97 -21,178 -23,180 -2,2 -27,-38 -55,-88 z"
       id="path66" />
    <path
       d="m 6770,5123 c -44,-119 -136,-333 -204,-475 -46,-99 -59,-118 -78,-118 -12,0 -85,-5 -162,-11 -107,-9 -178,-9 -303,1 -91,6 -167,9 -170,6 -15,-15 216,-256 345,-360 39,-32 72,-62 72,-66 0,-10 -122,-205 -203,-324 -89,-130 -85,-120 -43,-112 111,21 375,134 486,209 64,44 68,42 161,-55 36,-37 68,-68 71,-68 9,0 65,138 82,205 8,33 22,104 30,158 13,89 18,102 48,131 76,75 165,265 218,467 16,63 30,116 30,118 0,2 -25,-22 -55,-53 -61,-62 -146,-121 -187,-131 -31,-8 -30,-13 -48,205 -14,155 -40,342 -49,353 -4,4 -22,-32 -41,-80 z"
       id="path68" />
    <path
       d="m 3650,4076 c 25,-73 97,-237 159,-364 28,-56 51,-106 51,-110 0,-11 -82,-39 -165,-57 -79,-17 -162,-19 -218,-6 -22,6 -37,5 -35,0 8,-23 122,-104 208,-148 125,-64 339,-131 420,-131 23,0 45,-17 112,-86 131,-136 250,-218 381,-263 60,-21 66,-17 43,27 -19,36 -46,170 -46,225 v 44 l 143,6 c 78,4 179,10 225,13 l 83,7 -222,112 c -137,69 -225,119 -229,130 -7,19 24,273 60,497 11,70 20,131 20,133 0,3 -55,-41 -122,-97 -128,-108 -223,-179 -321,-242 l -58,-37 -106,77 c -94,69 -237,183 -360,289 l -42,36 z"
       id="path70" />
    <path
       d="m 5939,3599 c -47,-70 -146,-188 -251,-299 l -83,-88 -72,-7 c -65,-6 -326,1 -363,10 -8,2 -42,6 -75,10 l -60,6 40,-41 c 22,-23 87,-73 144,-112 97,-66 103,-72 85,-85 -33,-25 -136,-75 -214,-104 l -75,-28 h 60 c 61,0 231,19 342,38 151,27 408,114 557,188 155,78 380,236 471,332 28,30 26,30 -50,-13 -43,-25 -116,-59 -163,-76 -92,-33 -250,-75 -257,-68 -3,2 0,31 5,64 11,67 12,230 2,288 l -7,39 z"
       id="path72" />
  </g>
</svg>
